<svg xmlns="http://www.w3.org/2000/svg" viewBox="0 0 54.496 56.721">
  <path id="Path_80520" data-name="Path 80520" d="M6687.448-2927.583a44.825,44.825,0,0,0,9.053-4.838l.736-.463a67.686,67.686,0,0,0,8.541-6.531c6.375-5.655,10.2-11.2,12.387-17.975.891-2.75,2.145-8.1.605-13.129a16.913,16.913,0,0,0-6.492-8.947c-.363-.312-4.326-3.534-11.8-3.534-6.838,0-14.334,2.681-22.283,7.972l-.254.161-.035.028c-.23.141-.459.286-.711.458a5.171,5.171,0,0,1-.615.407,46.045,46.045,0,0,0-4.617,3.631c-3.354,3.292-7.182,8.8-6.947,13.484a6.309,6.309,0,0,0,2.424,4.806,7.917,7.917,0,0,0,5.047,1.628c4.066,0,8.531-2.249,11.582-4.151.189-.14.385-.271.58-.4.533-.36,1.063-.713,1.6-1.079l.521-.358c4.338-2.946,8.826-6,13.881-7.786a10.765,10.765,0,0,1,3.512-.672,6.6,6.6,0,0,1,1.516.163,4.73,4.73,0,0,1,3.34,2.64c1.17,2.43.893,6.253-.705,9.755-2.172,4.767-5.916,9.472-11.105,13.976a43.825,43.825,0,0,1-7.264,5.263l-.2.106a25.615,25.615,0,0,1-3.367,1.665l-.168.065c-.355.139-.658.257-.939.351-5.078,1.382-1.988-3.159-1.988-3.159a38.607,38.607,0,0,1,3.465-3.562c.686-.657,1.4-1.33,2.113-2.059l.156-.166c.883-.9,2.1-2.13,2.027-3.894-.105-2.35-2.445-3.818-4.654-3.881h-.164a9.3,9.3,0,0,0-5.439,2.322,18.053,18.053,0,0,0-3.646,4.177c-1.35,2.174-4.191,7.726-1.422,12.155,1.109,1.773,2.957,2.672,5.5,2.672a18.507,18.507,0,0,0,6.238-1.3" transform="translate(-6665 2983)" fill="#ec1a23" fill-rule="evenodd"/>
</svg>
