<?xml version="1.0" encoding="UTF-8"?>
<svg width="500px" height="500px" viewBox="0 0 500 500" version="1.1" xmlns="http://www.w3.org/2000/svg" xmlns:xlink="http://www.w3.org/1999/xlink">
    <!-- Generator: Sketch 53.2 (72643) - https://sketchapp.com -->
    <title>Artboard</title>
    <desc>Created with Sketch.</desc>
    <g id="Artboard" stroke="none" stroke-width="1" fill="none" fill-rule="evenodd">
        <path d="M150.481829,0.653437125 C165.753004,2.68345966 181.733118,4.71936145 198.562611,6.90308449 L196.842827,17.8443768 C180.034358,15.6682128 163.922213,13.56176 148.742703,11.5325773 L150.481829,0.653437125 Z M198.562611,6.90308449 C216.748589,9.27242399 235.854589,11.7685874 256.017687,14.3756168 L254.298745,25.3446256 C234.134805,22.7451552 215.016191,20.1943988 196.842827,17.8443768 L198.562611,6.90308449 Z M256.017687,14.3756168 C269.408454,16.1612303 283.385377,17.9342454 297.840812,19.8945568 L296.107572,30.7669778 C281.582337,28.9099734 267.669328,27.0193732 254.298745,25.3446256 L256.017687,14.3756168 Z M297.840812,19.8945568 C330.212273,24.0511896 365.395938,28.6462468 403.6626,33.6024582 L401.915064,44.5781862 C363.669427,39.5388253 328.45885,35.0067601 296.107572,30.7669778 L297.840812,19.8945568 Z M403.6626,33.6024582 L410.378587,34.4843464 L408.847181,40.3451231 L402.735851,39.1213983 L403.6626,33.6024582 Z M408.847181,40.3451231 C403.919096,58.1113898 399.040629,76.2824851 393.932576,94.8634485 L381.932774,92.2698575 C386.936546,73.7040122 391.948728,55.5194785 396.743939,37.8078049 L408.847181,40.3451231 Z M393.932576,94.8634485 C388.843866,113.464569 383.644989,132.441123 378.404064,151.869538 L366.397534,149.25579 C371.653597,129.855091 376.845746,110.885257 381.932774,92.2698575 L393.932576,94.8634485 Z M378.404064,151.869538 C372.836001,172.222677 367.198978,193.068833 361.379465,214.534831 L349.296407,211.893366 C355.088168,190.566791 360.850495,169.637485 366.397534,149.25579 L378.404064,151.869538 Z M361.379465,214.534831 C355.463241,235.937836 349.568881,257.819581 343.373455,280.306049 L331.382062,277.741854 C337.45723,255.241108 343.46428,233.337526 349.296407,211.893366 L361.379465,214.534831 Z M343.373455,280.306049 L341.571256,287 L334.74342,283.969664 L337.395839,279.013453 L343.373455,280.306049 Z M334.74342,283.969664 C305.379267,271.325908 278.025033,259.494329 252.462066,248.435451 L257.84091,238.453317 C283.385377,249.456762 310.731201,261.330336 340.116378,274.07152 L334.74342,283.969664 Z M252.462066,248.435451 C226.924327,237.390012 203.114782,227.102157 180.932514,217.496295 L186.27772,207.52088 C208.501196,217.099865 232.28383,227.415437 257.84091,238.453317 L252.462066,248.435451 Z M180.932514,217.496295 C145.574768,202.258948 113.760029,188.509052 85.0223993,176.212171 L90.3961981,166.20988 C119.112804,178.645343 150.934271,192.276814 186.27772,207.52088 L180.932514,217.496295 Z M85.0223993,176.212171 C81.8351226,174.80115 78.6537328,173.438843 75.584192,172.139528 L80.9436944,162.170832 C84.0409872,163.44999 87.2080805,164.840853 90.3961981,166.20988 L85.0223993,176.212171 Z M75.584192,172.139528 L70.3785872,169.866776 L72.5642684,165.125577 L78.2988434,167.114445 L75.584192,172.139528 Z M72.5642684,165.125577 C76.5521486,155.915305 80.644309,146.815899 84.6599412,137.717333 L96.1442286,141.776539 C92.115141,150.792795 88.1196921,159.877923 84.0409872,169.143628 L72.5642684,165.125577 Z M84.6599412,137.717333 C94.6691671,115.021732 104.490016,92.8544233 109.91175,80.5088291 L121.381741,84.554596 C110.391944,109.495233 103.300043,125.462448 96.1442286,141.776539 L84.6599412,137.717333 Z M109.91175,80.5088291 C115.73715,67.4476457 121.465838,54.4628925 127.123885,41.812417 L138.636765,45.7809136 C132.942557,58.5086594 127.179389,71.4304205 121.381741,84.554596 L109.91175,80.5088291 Z M127.123885,41.812417 C132.740724,28.9586872 138.378587,16.4812297 143.849098,4.06004507 L155.291337,8.12009013 C149.84185,20.5479939 144.288084,33.0397296 138.636765,45.7809136 L127.123885,41.812417 Z M143.849098,4.06004507 L145.658865,0 L150.481829,0.653437125 L149.577786,6.1035059 L143.849098,4.06004507 Z" id="Fill-1" fill="#FFFFFF"></path>
        <path d="M310.342118,99.4422936 C312.805796,100.874823 315.352719,102.34264 317.983725,103.82306 C321.253775,104.032268 324.176555,102.585456 326.34846,101.869611 C327.990632,101.674686 329.716048,101.507488 331.442305,101.29912 C335.255541,101.779711 337.517416,102.829112 341.352514,103.726438 C345.465092,104.783401 349.806379,105.248867 354.150189,106 C356.88462,105.82524 359.605597,105.575703 362.459428,105.325325 C362.890782,105.325325 363.335589,105.429509 363.91325,105.429509 C368.360484,103.969254 372.897689,102.440102 377.351649,100.973125 C381.143864,98.4693502 383.245979,95.9311271 379.828781,92.1973094 C378.15802,91.5495206 376.530143,90.7992283 374.95692,90.1598414 C374.532293,90.1111102 374.066464,90.0060861 373.614089,89.9237472 C368.687573,89.7078176 364.894517,90.5068411 360.698696,90.8824074 C360.36404,90.6320299 359.988182,90.3892141 359.695567,90.1598414 C358.429253,89.248232 359.695567,88.3727509 359.522353,87.5728872 C359.445836,87.093137 359.445836,86.6831228 359.334004,86.1958108 C359.166675,85.4732449 358.881629,85.3749423 357.984446,84.812013 C356.084975,85.0422258 354.240159,85.3749423 352.430659,85.6816127 C332.535404,84.2146357 313.446521,82.8577241 295.074038,81.4461998 C293.37637,80.7236338 291.63666,80.1044116 290.007942,79.3465575 C287.983185,78.956708 285.985335,78.6298729 283.988326,78.2963163 C282.889341,78.0535005 281.817262,78.0535005 280.634192,77.8165661 C280.091005,77.6636509 279.555387,77.4208352 278.999587,77.1561744 C279.555387,76.4403299 280.634192,76.3630322 282.10315,75.9815846 C295.019383,77.5107358 308.345109,79.0550105 322.17282,80.5698785 C323.697273,81.3000062 325.380647,82.0587005 326.995912,82.7896684 C328.352196,83.0879369 329.626078,83.414772 330.962182,83.8247862 C339.167156,83.7407669 345.074939,81.2243889 352.542491,81.1479313 C361.177979,80.9950162 369.974908,82.6081867 378.9728,83.345036 C380.977377,83.4979511 382.994566,83.7407669 385.055479,83.9844229 C391.081822,83.345036 399.982176,79.4440199 397.532791,76.2865746 C395.410496,76.196674 393.357151,76.196674 391.241583,76.1059331 C388.040482,76.196674 384.888151,76.3630322 381.791316,76.3630322 C379.703495,75.4589845 379.703495,74.7431401 379.257847,73.7836397 C378.437181,71.7251668 377.504683,69.7574348 376.801736,67.9148916 C376.335067,67.1007446 375.965935,66.3571738 375.618666,65.6337676 C377.413872,65.870702 379.446196,67.1007446 381.254856,67.5258822 C382.911322,67.9148916 384.630852,68.4156466 386.362995,68.7214769 C388.896463,69.2289534 390.267042,69.0474717 392.522191,69.0474717 C396.690264,66.9419481 400.963443,64.7440032 405.236621,62.6300776 C407.51195,60.1405858 408.597482,58.0199386 415.619387,57.2057916 C417.783724,57.3519852 419.982536,57.6023627 422.056062,57.7762827 L423.608263,57.7762827 C425.897887,57.0259903 427.227264,55.9749089 427.35255,54.6742901 C427.525764,53.7080682 426.788342,52.7418462 426.510022,51.6781619 C418.353817,52.0108783 410.218633,52.3242703 402.341589,52.7418462 C393.128441,53.4030781 384.150729,54.2088232 374.803886,54.3482952 C374.066464,54.2785592 373.343337,54.2088232 372.632822,54.0147386 C372.069455,53.3123373 371.630534,52.4847472 371.165546,51.587421 C370.893112,51.3656101 370.343199,50.9547557 370.253228,50.6287608 C370.538275,50.6900949 370.795574,50.6287608 371.165546,50.6900949 C372.425133,50.7808358 373.68388,50.7808358 374.95692,50.8707364 C385.055479,47.5410516 395.35416,44.0290448 405.709177,40.5456046 C405.430857,39.6692833 405.181126,38.7727974 404.971755,37.791452 C403.7046,37.1310603 402.418106,36.4345403 401.277078,35.7472624 C380.810889,32.4377422 363.161534,38.0418295 344.525026,36.5958574 C342.361529,36.3387583 340.161876,36.0035213 337.970632,35.7472624 C324.448149,34.9549604 312.54093,36.2555792 299.695327,35.5111682 C297.614234,35.1977762 295.637405,34.9549604 293.647123,34.7037427 C292.269817,34.5508276 290.8017,34.3138932 289.458029,34.1408134 C280.467704,33.5778841 273.090963,34.8566579 264.990254,35.275074 L264.990254,37.617532 C275.616864,37.8746311 286.549543,38.2081877 297.725225,38.5148582 C298.900728,38.9315939 300.189745,39.3491698 301.462785,39.7533026 C301.170171,39.9885567 300.891851,40.1565953 300.626985,40.3229535 C293.076188,41.0320764 284.719021,40.9556188 276.896632,41.1849915 C272.910182,41.2824539 268.915323,41.3731948 264.990254,41.5328314 L264.990254,65.0011023 C279.472143,65.1540174 294.441722,65.3144942 309.994849,65.4884142 C303.271445,65.5715933 296.62624,65.6337676 290.063438,65.8076875 C283.556972,65.9606027 273.090963,66.0513435 268.915323,68.1022546 C270.182477,68.1022546 271.553056,68.1577073 272.910182,68.2417266 C273.980578,68.3114627 275.087972,68.3114627 276.180231,68.4156466 C277.190087,68.4845424 278.184808,68.5408354 279.249319,68.6450193 C280.634192,68.7214769 282.10315,68.8752322 283.418233,68.9785759 C283.717574,69.0474717 284.079978,69.1390528 284.55926,69.2289534 C282.736307,69.9523596 278.344568,69.9523596 276.007017,70.1119963 C272.277025,70.1884538 268.609255,70.2859162 264.990254,70.411105 L264.990254,89.7078176 C265.616684,89.7632703 266.270862,89.8254446 266.994831,90.0060861 C268.094657,90.1111102 269.186916,90.2573038 270.362418,90.3892141 C272.373722,90.6320299 274.447248,90.8824074 276.549363,91.1395064 C288.908115,94.6935228 301.706631,98.5315244 315.004608,102.440102 C313.613008,101.368856 311.817802,100.381629 310.342118,99.4422936 L310.342118,99.4422936 Z M264.990254,69.0474717 L264.990254,67.9148916 C266.270862,67.9148916 267.648168,68.0182353 268.915323,68.1022546 C268.915323,68.1022546 268.824511,68.1022546 268.824511,68.1577073 C271.00987,68.6450193 273.333968,69.0474717 275.616864,69.5347837 C272.095402,69.3684255 268.57478,69.2289534 264.990254,69.0474717 L264.990254,69.0474717 Z M264.990254,35.275074 C264.266286,35.3515315 263.625561,35.3515315 262.923455,35.3515315 L261.823628,35.3515315 C256.541435,35.1078756 251.364346,34.9549604 246.291523,34.8566579 L243.53523,34.8566579 L243.459554,34.8566579 L243.459554,36.9571404 C243.848866,37.0680458 244.175955,37.0680458 244.551813,37.0680458 C251.266808,37.2419658 258.079342,37.4024426 264.990254,37.617532 L264.990254,35.275074 Z M264.990254,41.5328314 C258.921869,41.6857465 252.903094,41.8386617 246.987744,42.0957607 C245.818127,42.1789398 244.64851,42.2696807 243.459554,42.3528598 L243.459554,51.0379348 C247.627627,51.0379348 251.91426,50.9547557 256.277409,50.9547557 C255.442449,51.1076708 252.63066,51.5109635 254.461182,52.0108783 C256.36822,52.4074494 258.275259,52.9090446 260.167162,53.3123373 C254.551152,53.3123373 248.915803,53.19387 243.459554,53.19387 L243.459554,64.7440032 C248.281805,64.8204608 253.194027,64.8969183 258.190333,64.8969183 C260.446323,65.0011023 262.735946,65.0011023 264.990254,65.0011023 L264.990254,41.5328314 Z M243.459554,85.6816127 C243.626042,85.7790751 243.911089,85.8622542 244.175955,85.9387118 C245.281667,86.1336366 246.38822,86.3420044 247.474593,86.5991035 C248.567693,86.8284762 249.63809,87.093137 250.724463,87.2460521 C251.726751,87.4897081 252.903094,87.7190807 253.939857,87.885439 C255.011095,88.0526374 256.083174,88.28201 257.188886,88.45593 C258.275259,88.6853027 259.354064,88.8592226 260.446323,89.0054162 C261.545308,89.1927793 262.644294,89.3322513 263.72394,89.5204545 C264.162021,89.5960719 264.544606,89.7078176 264.990254,89.7078176 L264.990254,70.411105 C263.529705,70.411105 262.186033,70.411105 260.738937,70.5085674 L258.629255,70.5085674 C258.275259,70.411105 257.982644,70.411105 257.717778,70.3901001 C256.736511,69.8616187 256.444737,69.3684255 256.006657,68.804656 C256.006657,68.7214769 255.894824,68.7214769 255.81158,68.7214769 C251.643507,68.4845424 247.55111,68.3114627 243.459554,68.1577073 L243.459554,85.6816127 Z M264.990254,67.9148916 L264.990254,69.0474717 C261.892578,68.9785759 258.921869,68.804656 255.81158,68.7214769 C255.351638,68.3114627 254.823586,67.9148916 254.377097,67.5258822 L254.461182,67.5258822 C256.083174,67.5258822 257.717778,67.6157829 259.354064,67.6645141 C261.294736,67.7409716 263.104237,67.8241507 264.990254,67.9148916 L264.990254,67.9148916 Z M243.459554,34.8566579 C242.00405,34.9549604 240.640198,34.9549604 239.276346,35.0238563 C238.552378,35.0238563 237.746006,35.1078756 237.258316,35.3515315 C237.154051,35.4548753 237.154051,35.5111682 237.154051,35.5111682 C237.154051,35.6775264 237.258316,35.7472624 237.370148,35.8438846 C237.537477,36.0035213 237.661922,36.0740975 237.793935,36.1782814 C239.478149,36.8185085 241.460864,36.9016876 243.459554,36.9571404 L243.459554,34.8566579 Z M243.459554,42.3528598 C241.733298,42.5066151 240.007041,42.6595302 238.36571,42.7427093 C238.253877,42.83261 238.086549,42.8956245 237.996579,42.8956245 C237.537477,42.972082 237.085102,43.076266 236.631886,43.215738 C236.381314,43.1527235 236.15933,43.1527235 235.915485,43.1527235 C234.662625,42.8956245 233.65361,42.3528598 232.643754,41.8386617 C230.647585,41.5328314 228.621988,41.1849915 226.652727,40.8858828 C209.560852,40.385968 193.652889,41.2824539 179.017966,43.1527235 C164.925389,45.0238333 151.808193,47.7838673 140.228064,51.1076708 C134.201721,53.3123373 128.293938,55.4884371 122.378587,57.6023627 C123.108441,58.9937223 123.304359,58.9937223 125.030615,60.0574067 C125.739448,60.1405858 126.484438,60.1405858 127.186544,60.20276 C138.287391,59.3827317 149.37899,58.0199386 161.578823,57.7762827 C154.195355,58.9937223 146.936332,60.1405858 139.928723,61.2740061 C138.377362,61.7260299 137.005942,62.1503274 135.655544,62.6922519 C133.909107,63.1308326 132.385494,63.4568275 130.749208,63.763498 C129.093582,64.0273186 127.944987,64.0273186 127.110868,64.8204608 C127.944987,65.9606027 128.849737,67.0108439 129.741034,68.1022546 C130.638216,68.4156466 131.730475,68.7214769 132.760511,69.1390528 C134.849173,69.7574348 137.194292,68.804656 139.100489,68.4845424 C140.291127,68.3114627 141.487651,68.1577073 142.760692,68.0182353 C142.566456,68.4845424 142.204052,68.6450193 141.654138,69.0474717 C141.369092,69.3121325 141.18831,69.6465293 141.015095,69.9523596 C141.18831,70.1119963 141.369092,70.2859162 141.487651,70.411105 C143.562018,71.3218742 146.115667,71.4957941 148.384269,71.7251668 C150.743682,71.8990868 153.115709,72.0730067 155.565934,72.1284595 C158.001023,72.309101 160.389026,72.3922801 162.824115,72.4687376 C176.276809,72.7132338 190.096952,72.5527569 204.452714,72.5527569 C205.094279,72.6224929 205.747616,72.6224929 206.36732,72.7132338 C210.284821,73.2828846 214.175415,73.9987291 218.092916,74.8826121 C220.54314,75.4589845 222.943755,76.1059331 225.372959,76.697429 C214.287247,76.9402448 203.563099,77.0940001 192.998711,77.3435374 C190.096952,77.0099808 187.550029,76.697429 184.647429,76.2865746 C175.55284,76.1059331 166.66594,75.9815846 157.911053,75.7866598 C157.668048,75.9815846 157.36114,76.1059331 157.201379,76.196674 C157.736998,76.3630322 158.398743,76.5302306 159.10085,76.697429 C166.185817,77.1561744 173.380935,77.2603583 180.834193,77.7392683 C186.812608,78.0535005 192.936488,78.4702362 199.199108,78.8037928 C200.814373,78.7206137 202.559969,78.6298729 204.279499,78.5609771 C217.368947,78.956708 229.721814,82.530889 243.459554,85.6816127 L243.459554,68.1577073 C241.907353,68.1022546 240.369446,68.1022546 238.887034,68.0182353 C236.715129,67.4275796 235.107432,66.9419481 232.748859,66.7604664 L231.016717,66.7604664 C230.097672,66.858769 229.29046,66.858769 228.378983,66.9419481 C223.368383,66.858769 218.454479,66.5310937 213.479194,66.1908155 C210.549687,65.9606027 207.64036,65.7026634 204.710853,65.5715933 C206.99375,65.2447582 209.283373,64.8204608 211.530954,64.5625215 C211.642787,64.5011874 211.732757,64.5011874 211.920266,64.4171681 C222.171018,64.5625215 232.643754,64.6465408 243.459554,64.7440032 L243.459554,53.19387 C238.184087,53.1384173 233.117991,53.1384173 228.023305,53.0619597 C227.265703,52.1503503 227.174051,51.3656101 226.652727,50.4674438 C226.826782,50.53802 226.903299,50.6287608 227.021858,50.6900949 C229.29046,51.1076708 231.538041,51.1076708 233.7234,51.1076708 C235.629597,51.1076708 237.537477,51.1076708 239.56896,51.0379348 L243.459554,51.0379348 L243.459554,42.3528598 Z" id="Fill-3" fill="#FFFFFF"></path>
        <path d="M412.125779,66.9116628 C412.125779,66.9116628 411.49075,66.575619 411.378587,66.4698118 C413.96846,65.8324289 416.495082,65.104475 419.063871,64.3545132 C421.889876,64.1090403 424.445172,63.9482133 426.894208,63.3116769 C427.439,63.0585859 428.088366,62.8063414 428.716648,62.5684867 C429.60299,62.1554152 430.544992,61.7271074 431.480247,61.251398 C431.829386,61.1675987 432.255269,61 432.890298,61 C432.980535,61.0837993 433.183778,61.251398 433.378587,61.3428155 C431.73156,63.0585859 430.070196,64.6914034 428.458589,66.4004022 C428.171856,66.4698118 427.822716,66.6382569 427.439,66.7296744 C425.135861,67.3044194 422.979461,67.7877469 420.710898,68.3057792 C418.693648,68.8034965 416.864461,69.2030247 413.96846,68.8881423 C413.402584,68.2075901 412.760808,67.5355024 412.125779,66.9116628" id="Fill-5" fill="#FFFFFF"></path>
        <path d="M394.378587,72.6176736 C396.240287,72.1023445 398.110148,71.5200631 399.970034,71 C400.165,71.1900361 400.435232,71.3523445 400.368127,71.5200631 C399.857588,71.9738503 399.482165,72.5054103 398.972533,72.9639315 C398.266121,73.4738503 397.537945,73.78156 395.872118,74 C395.361579,73.5462128 394.851947,73.0931019 394.378587,72.6176736" id="Fill-7" fill="#FFFFFF"></path>
        <path d="M262.394869,51 C263.02137,51 263.620414,51.1014085 264.281028,51.1014085 C270.031025,51.5671362 275.808479,52.3830986 281.709901,53.0056338 C283.259929,53.1220657 284.87735,53.1924883 286.405746,53.3784038 C287.831805,53.4798122 289.352713,53.5492958 290.798741,53.5492958 C296.824132,53.7981221 302.752179,53.6497653 308.98474,53.7361502 C309.969004,53.7981221 310.960756,53.7981221 312.042365,53.9305164 C323.802777,54.9323944 335.963385,55.8957746 348.378587,57 L347.752086,57 C346.582285,56.9061033 345.307651,56.8056338 344.041337,56.8056338 C326.881202,56.2694836 310.4108,56.3624413 294.771572,56.8056338 C293.326377,56.8056338 291.962718,56.9061033 290.537491,56.9061033 L286.226865,56.9061033 C284.788325,56.8056338 283.431323,56.8056338 282.019408,56.8056338 C280.663237,56.7201878 279.306234,56.6347418 277.861039,56.5333333 C276.613861,56.4638498 275.256858,56.3624413 273.900688,56.2694836 C272.647686,56.1915493 271.373884,56.0985915 270.135026,55.9971831 C268.956905,55.8957746 267.710559,55.7248826 266.526613,55.6553991 C265.459149,55.5624413 264.370884,55.3596244 263.289276,55.1812207 C262.105331,54.9323944 260.948841,54.5361502 259.702496,54.1004695 C259.392989,53.6497653 259.254876,53.3784038 259.516126,53.1220657 C260.412197,52.2751174 261.410605,51.7539906 262.394869,51" id="Fill-9" fill="#FFFFFF"></path>
        <path d="M208.384077,50 C207.027876,50.0905027 205.727132,50.1510811 204.461681,50.2715081 C203.196229,50.3561719 201.916493,50.4357267 200.657763,50.5130919 C194.572503,50.6524952 188.585556,50.5130919 182.576761,50.5130919 C176.046156,50.5554238 169.579412,50.6524952 163.340382,50.7072347 C161.775793,50.7845999 160.148183,50.9247331 158.612164,51.0028282 C157.896251,51.0685156 157.040853,51.1298239 156.330822,51.2086488 C155.246029,51.5648207 154.168798,51.9392391 153.069721,52.253809 C152.346245,52.6815072 152.14458,53.1106651 152.686556,53.6726576 C152.881499,53.8120609 153.145345,53.8843171 153.389024,53.9682511 C154.320888,54.010583 154.717497,54.010583 155.614909,53.9682511 C156.135878,53.8843171 156.790451,53.8120609 157.527371,53.8120609 C158.160097,53.7266673 158.861725,53.6726576 159.620492,53.6726576 C163.876476,53.4609981 168.167753,53.4609981 172.506084,53.6062403 L174.495851,53.6062403 L195.031293,53.6062403 C195.859802,53.6062403 196.568993,53.6726576 197.368933,53.6726576 C198.112575,53.6062403 198.849495,53.6062403 199.559526,53.539823 C204.55243,53.2442295 209.392405,52.9114132 214.378587,52.4764164 C212.285466,51.6253991 210.289817,50.7845999 208.384077,50" id="Fill-11" fill="#FFFFFF"></path>
        <path d="M249.470807,240.308303 C249.67322,240.002128 249.846236,239.646324 249.950382,239.256876 C251.013679,239.44445 252.18868,239.646324 253.300691,239.841469 C253.75339,239.896985 254.287558,239.764926 254.636111,239.896985 L254.636111,240.579992 C254.379105,241.386648 254.184251,242.2648 254.023833,243.092484 C257.284274,252.998615 260.634582,263.162135 264.020166,273.556128 C265.278316,274.217266 266.549905,274.788401 267.913041,275.429352 C268.989776,275.108877 270.178216,274.788401 271.374214,274.475497 C279.513557,261.623686 272.980078,244.318028 276.240518,230.471146 C276.712535,229.009241 277.261821,227.561636 277.71368,226.093001 C279.626102,215.113573 276.442091,203.571421 279.41697,193.269953 C279.702532,192.371614 279.993972,191.383272 280.264416,190.421846 C280.97328,183.606071 278.186536,176.924038 277.261821,170.213407 C277.060248,164.107556 276.803242,158.07152 276.615108,152.057354 C276.442091,151.805852 276.184246,151.57622 275.989392,151.249857 C275.3368,151.736879 274.82195,152.2096 274.280223,152.718491 C273.271519,160.090261 275.545092,167.817834 275.176382,175.615221 C274.82195,182.624459 272.88937,189.544535 271.812635,196.617699 C271.374214,196.123107 271.096212,195.546084 270.714063,195.002706 C268.086058,179.43653 269.545781,163.279031 264.346042,148.889612 C264.158747,148.576708 264.089036,148.15866 263.929458,147.741453 L263.929458,147.357893 C264.020166,147.177047 264.020166,147.00966 264.089036,146.940686 C264.534176,146.377121 265.180049,145.86823 265.820883,145.48551 C266.271902,144.169123 266.723761,142.874605 267.10591,141.566629 C267.99619,118.89869 262.817448,96.78254 258.903575,76.3234401 C258.833865,73.4130883 258.764994,70.4615206 258.64657,67.516682 C258.382846,64.6273588 258.20227,61.8911235 254.636111,60.5267909 C253.628246,60.6176343 252.682534,60.7782924 251.646954,60.8472661 C251.285802,61.2653137 251.013679,61.6757911 250.728957,62.0803805 C250.298095,63.3883565 249.846236,64.6273588 249.470807,65.8175749 L249.470807,137.430733 C250.013374,137.430733 250.660087,137.430733 251.202653,137.501389 C251.646954,137.501389 252.125689,137.60485 252.556551,137.681394 C252.390253,137.681394 252.286107,137.758779 252.18868,137.841211 C251.646954,139.289657 251.730102,140.912221 251.835088,142.457399 C251.939234,143.862947 252.008105,145.318123 252.18868,146.695914 C252.125689,148.889612 252.008105,151.159014 251.939234,153.345142 C250.938089,152.927095 250.193949,152.2096 249.470807,151.339859 L249.470807,240.308303 Z M228.145242,232.044923 C229.41683,232.379698 230.758969,232.671574 232.121266,233.09551 C233.031703,233.35374 234.032008,233.486641 234.922288,233.72216 C234.588853,234.718073 232.955273,235.296779 232.301841,236.263251 C231.224266,238.219747 230.591832,240.412605 229.772102,242.438075 C231.412401,246.19041 233.12913,249.921717 234.866855,253.730408 C237.959319,257.656019 240.490737,260.19038 241.393616,264.798997 C240.761181,266.67895 240.219454,268.537033 239.587019,270.472501 C240.038038,272.031979 240.490737,273.625943 241.031624,275.261964 C242.214185,276.8349 243.577321,278.263159 245.299929,279 C245.584651,278.923456 245.821499,278.923456 246.092782,278.847753 C247.031776,272.826017 247.837227,266.887553 248.762782,260.983577 C249.102936,254.134156 248.942518,247.235109 249.388498,240.579992 C249.470807,240.503448 249.470807,240.412605 249.470807,240.308303 L249.470807,151.339859 C248.386513,149.871225 247.66421,147.908 247.476916,146.550396 C247.121644,144.740258 246.572358,143.027693 246.495928,141.162881 C246.378344,139.3948 247.031776,138.900209 248.289926,137.681394 C248.477221,137.60485 248.567929,137.60485 248.762782,137.501389 C249.012229,137.501389 249.289391,137.430733 249.470807,137.430733 L249.470807,65.8175749 C247.476916,72.6409199 246.572358,79.7267011 245.189064,86.7165922 L245.189064,68.345207 C245.042924,67.516682 244.939618,66.6250714 244.758202,65.8175749 C244.876626,64.4465133 244.939618,63.1376961 245.042924,61.7666344 C245.299929,60.6176343 245.73835,59.810979 245.140351,58.7385228 C243.486614,58.5215081 241.942902,58.2506604 240.406749,58 C239.663449,58.4315059 238.849599,58.7385228 238.140734,59.1548881 C236.424006,60.0607982 236.945575,62.3301997 236.75828,63.7635058 C236.555868,64.7737175 236.424006,65.7343019 236.215714,66.7302141 C235.749576,66.1456204 235.65215,65.8175749 235.318715,65.1631663 C234.922288,64.6904445 234.485547,64.3556699 234.032008,63.9519217 C232.121266,64.2715557 231.072247,66.4728246 230.216402,67.7463138 C229.487381,69.2082188 228.881822,70.7046107 228.145242,72.0765135 L228.145242,139.929767 C228.784395,138.398888 229.681394,136.951282 229.86197,135.147874 C229.86197,134.744125 229.772102,134.353835 229.681394,133.839056 C229.598246,133.108104 229.487381,132.460424 229.41683,131.827044 C229.333681,126.048398 229.681394,119.867686 230.953823,114.437272 C231.412401,116.351712 231.870979,118.245123 232.301841,120.194049 C232.301841,120.292462 232.420265,120.361436 232.489136,120.431251 C232.420265,124.573035 232.301841,128.729118 232.121266,132.870902 C231.968406,137.256617 232.121266,144.016876 229.333681,147.741453 C228.881822,146.8776 228.492955,145.86823 228.145242,144.998489 L228.145242,151.409674 C228.67353,151.339859 229.132108,151.339859 229.681394,151.0749 C229.681394,151.020225 229.772102,150.845268 229.86197,150.755266 C229.952678,154.354513 230.036667,157.876375 230.036667,161.567307 C230.036667,162.693596 230.036667,163.843437 229.952678,164.977297 C229.952678,165.95218 229.86197,167.017908 229.86197,168.068494 C229.772102,168.981133 229.681394,169.933306 229.681394,170.824917 C229.487381,171.068848 229.41683,171.242964 229.333681,171.486896 C228.784395,170.330325 228.402247,169.043378 228.145242,167.650446 L228.145242,232.044923 Z M194.543051,176.924038 C193.090047,177.925839 191.616885,178.956238 190.275586,179.937851 C190.17144,181.859019 191.749588,184.010661 192.735615,185.695468 C192.909471,186.43315 193.188314,187.254105 193.452038,187.887485 C193.542746,190.421846 192.360185,191.563276 191.276731,193.645103 C190.275586,195.608328 190.005143,197.822215 189.378587,199.9175 C189.622154,201.386975 189.913595,202.848039 190.17144,204.387329 L190.17144,205.479972 C191.749588,208.591357 193.278182,211.717041 194.821893,214.940298 C197.44234,218.114768 199.916647,220.732403 204.177392,220.815676 C204.879538,220.25211 205.713545,219.764248 206.520676,219.180495 C206.617263,218.964322 206.722249,218.706932 206.812117,218.519358 C207.062403,215.921911 206.180522,213.172217 205.713545,210.554583 C205.999107,210.499068 206.249393,210.415794 206.520676,210.324951 C207.416836,209.991018 208.542284,211.132448 209.544269,211.473951 C209.989409,211.717041 210.433709,211.876858 210.955279,212.030787 C211.796845,212.280607 211.969862,212.190604 212.525867,211.946673 C212.268862,210.645426 211.879994,209.434182 211.545719,208.208638 C212.525867,196.513397 213.527012,185.054518 214.500441,173.826112 C215.243741,172.95553 216.06347,172.063919 216.87732,171.242964 C217.135166,170.024991 217.509755,168.813746 217.870906,167.595772 C217.954895,166.620888 217.954895,165.074869 218.872891,164.490275 C219.428896,165.381886 219.963904,166.286114 220.596339,167.086881 C219.317192,175.224931 218.059041,183.404197 216.787453,191.792908 C216.06347,192.544889 215.243741,193.269953 214.409733,193.993336 C214.06202,194.641015 213.700029,195.301312 213.332158,195.949832 C213.874725,206.00821 222.319787,216.896795 213.978871,225.299804 C213.624439,226.36469 213.332158,227.416118 212.964288,228.453246 C212.268862,230.965738 214.687736,234.300025 216.43218,236.66784 C217.135166,237.621695 217.808755,238.525923 218.483184,239.44445 C219.428896,240.503448 219.685902,240.579992 220.950771,240.809624 C221.145625,239.515106 221.325361,238.289562 221.521054,236.980745 C221.722627,234.948546 221.972914,232.859149 222.229919,230.722648 C223.605653,230.471146 224.481655,230.965738 226.059803,231.480517 C226.67124,231.626875 227.394383,231.871648 228.145242,232.044923 L228.145242,167.650446 C227.852961,166.425744 227.790809,165.235527 227.595956,164.156342 C227.04667,160.271948 226.67124,156.435498 226.22694,152.641947 C226.609089,152.2096 227.150816,151.876508 227.595956,151.507247 C227.790809,151.409674 227.950388,151.409674 228.145242,151.409674 L228.145242,144.998489 C227.950388,144.511468 227.686663,143.919304 227.49097,143.445741 C227.49097,142.951149 227.394383,142.533943 227.394383,142.06795 C227.595956,141.329427 227.852961,140.598475 228.145242,139.929767 L228.145242,72.0765135 C228.062093,72.2363305 227.950388,72.3826892 227.852961,72.5702639 C227.311234,74.2618007 226.67124,75.9743661 226.059803,77.6869315 C223.140356,88.3458845 222.229919,99.0738112 221.7789,110.441847 C221.7789,110.922139 221.576487,111.41589 221.576487,111.840666 C220.776915,114.583631 219.866477,117.346783 218.691476,120.05526 C218.059041,121.655954 217.342618,123.278517 216.578321,124.837153 C216.717742,115.070652 216.787453,105.484155 216.787453,96.1357017 C217.342618,94.7494995 217.808755,93.3641384 218.232898,91.9653191 C219.866477,85.088141 221.576487,78.2723664 223.245342,71.4153758 C223.049648,71.1083589 222.953061,70.7601261 222.883351,70.4615206 C222.493643,70.8509694 222.229919,71.1714446 221.972914,71.6029505 C219.685902,76.7684043 218.135471,82.3098486 216.961309,87.7671787 C215.876175,92.556642 215.042168,97.4369486 214.152728,102.24744 C214.152728,103.702616 214.256874,105.164521 214.256874,106.633155 C213.527012,116.6234 209.440123,125.568947 206.074697,135.307691 C205.789975,136.289303 205.53297,137.173344 205.275964,138.071684 C204.983684,139.039838 204.816546,139.929767 204.546103,140.841565 C204.337811,141.733175 204.065687,142.69376 203.892671,143.619857 C203.704536,144.511468 203.510522,145.415695 203.350104,146.271978 C203.170368,147.177047 203.07966,148.15866 202.905804,149.035971 C202.78738,149.94104 202.621082,150.845268 202.522815,151.736879 C202.447226,152.718491 202.259091,153.588232 202.154945,154.557228 C202.085234,155.468185 202.002086,156.435498 201.911378,157.417111 C198.436766,164.400273 195.113334,171.542411 191.540456,178.726606 C192.645747,178.226126 193.639333,177.508632 194.543051,176.924038 L194.543051,176.924038 Z" id="Fill-13" fill="#FFFFFF"></path>
        <path d="M231.469454,258.564023 C231.631244,258.494152 231.829482,258.42428 232.006384,258.319894 C232.314853,259.031236 232.697994,259.713957 232.970015,260.389101 C234.146996,264.75144 232.697994,268.485778 234.22078,272.874214 C234.507914,273.843155 234.883943,274.817988 235.191523,275.807975 C235.390649,276.19774 235.486657,276.692734 235.191523,277 C235.082181,276.943598 234.883943,276.943598 234.883943,276.943598 C234.603032,276.789544 234.3319,276.616128 234.014542,276.371998 C232.006384,274.184094 229.997338,271.264643 229.511967,268.659194 C229.136827,266.765086 228.931477,264.897918 228.643455,262.981081 C228.371433,261.239344 227.996293,259.212229 229.328842,258 C229.997338,258.132167 230.769843,258.42428 231.469454,258.564023" id="Fill-15" fill="#FFFFFF"></path>
        <path d="M226.367621,243.355941 C227.031476,245.225629 227.659903,247.047325 228.378587,249 C228.112877,248.900017 227.736664,248.900017 227.575551,248.619063 C226.940375,247.808199 226.2141,247.047325 225.656529,246.285452 C224.894825,245.118647 224.482341,244.233794 224.378587,243 C225.013762,243.090985 225.656529,243.272955 226.367621,243.355941" id="Fill-17" fill="#FFFFFF"></path>
        <path d="M255.314716,164.609702 C255.314716,165.123397 255.231039,165.504688 255.231039,165.989891 C254.911964,169.977942 254.059563,173.813477 253.517962,177.891194 C253.449917,178.952943 253.321183,179.992903 253.244863,181.04711 C253.244863,182.046008 253.130841,183.058314 253.130841,184.057213 C253.130841,187.95476 253.449917,191.921023 253.625546,195.78505 C253.517962,196.846798 253.517962,197.976425 253.449917,199.038173 C252.011778,206.867625 250.641684,214.906577 249.249521,223 C249.249521,222.84078 249.356186,222.736867 249.356186,222.597759 C249.455495,221.772327 249.552964,220.982091 249.637561,220.170068 C250.641684,208.518489 250.269275,197.019426 248.867917,185.645226 C248.640794,184.632082 248.564474,183.654134 248.564474,182.600765 C248.18379,176.198431 248.359419,169.89498 249.356186,163.714716 C250.763981,160.247064 256.014476,162.820568 255.314716,164.609702" id="Fill-19" fill="#FFFFFF"></path>
        <path d="M255.441772,125.885174 C255.26562,124.928194 255.096277,123.922268 254.969482,122.860644 C254.913318,121.994805 254.800989,121.017572 254.709084,120.095192 C254.639304,119.208255 254.639304,118.292626 254.639304,117.398939 L254.639304,114.996362 C254.800989,112.377747 255.173715,109.667992 255.441772,106.992836 C256.103829,101.202854 256.723338,95.4550671 257.378587,89.8591816 L257.378587,88.1275036 C256.266365,86.7451992 255.096277,85.3552997 254.012137,84 C253.715998,84.140087 253.511765,84.2092866 253.328805,84.3772223 C253.047133,84.8734341 253.047133,85.2084615 252.962887,85.7738729 C252.899064,86.2911822 252.899064,86.7451992 252.962887,87.2405671 C252.899064,87.8059785 252.793543,88.3021904 252.793543,88.8540995 C252.419966,91.8988823 251.772375,94.8677144 251.032879,97.9411897 C250.963099,98.4222114 250.84992,98.9260183 250.758015,99.4011327 C250.039793,104.856087 249.483257,110.394588 249.378587,116.009039 C249.378587,116.5331 249.378587,117.063911 249.483257,117.658859 C249.842368,121.436145 250.504425,125.166173 251.243921,129 C252.596968,127.931626 254.040219,126.954392 255.441772,125.885174" id="Fill-21" fill="#FFFFFF"></path>
        <path d="M146.036705,322.345335 L146.036705,339.676493 L104.930364,339.676493 L104.930364,387.621323 C104.930364,396.492024 108.547021,400.951754 116.076605,400.951754 C124.358642,400.951754 128.601502,395.642952 128.601502,384.915221 L128.601502,381.129705 L150.36205,381.129705 L150.36205,385.750002 C150.36205,390.160973 150.271991,393.986841 149.909231,397.173804 C148.544883,411.729085 136.437454,419 113.478368,419 C90.5596828,419 79.1996572,409.613971 79.1996572,390.899077 L79.1996572,339.676493 L65.3785872,339.676493 L65.3785872,322.345335 L79.1996572,322.345335 L79.1996572,301 L104.930364,301 L104.930364,322.345335 L146.036705,322.345335 Z M161.59835,322.345335 L187.037838,322.345335 L185.971442,338.472661 L186.606061,338.549161 C191.628309,326.993374 202.70385,321.267602 220.132319,321.267602 C245.405157,321.267602 258.01338,331.828882 258.01338,352.763973 L258.01338,417.809618 L232.468682,417.809618 L232.468682,360.271115 L232.468682,356.736957 L231.919072,350.043579 C230.657408,342.883632 224.451772,339.293991 213.132146,339.293991 C195.871169,339.293991 187.218797,346.675874 187.218797,361.210138 L187.218797,417.809618 L161.59835,417.809618 L161.59835,322.345335 Z M274.542945,322.345335 L300.177701,322.345335 L299.467331,337.01915 L300.108684,337.109942 C305.29674,326.526805 316.199739,321.267602 332.568545,321.267602 C351.996824,321.267602 362.703713,327.158986 364.764964,338.959406 L365.204316,338.959406 C370.25518,327.158986 381.190162,321.267602 398.208738,321.267602 C423.048957,321.267602 435.378587,332.364386 435.378587,354.615118 L435.378587,417.809618 L409.744673,417.809618 L409.744673,359.575044 C409.744673,346.098336 403.620679,339.293991 391.096623,339.293991 C375.561912,339.293991 367.718385,346.836441 367.718385,362.024743 L367.718385,417.809618 L342.105513,417.809618 L342.105513,358.705796 C342.105513,350.774117 340.935591,345.527525 338.56713,343.05765 C336.267687,340.637374 331.245439,339.293991 323.645997,339.293991 C308.105395,339.293991 300.177701,347.079393 300.177701,362.497197 L300.177701,417.809618 L274.542945,417.809618 L274.542945,322.345335 Z" id="Fill-23" fill="#FFFFFF"></path>
        <polygon id="Fill-25" fill="#FCDE0A" points="155.378587 437 155.378587 486 144.351832 486 144.351832 455.479688 130.360987 474.379834 129.396188 474.379834 115.405342 455.479688 115.405342 486 104.378587 486 104.378587 437 113.682307 437 129.878167 458.909876 146.074868 437"></polygon>
        <path d="M192.791616,468.983085 C192.791616,463.546378 189.426063,459.921906 183.887421,459.921906 C180.591913,459.921906 177.78757,461.24669 175.68538,464.313224 L175.68538,473.652946 C177.78757,476.650693 180.591913,478.044263 183.887421,478.044263 C189.426063,478.044263 192.791616,474.351005 192.791616,468.983085 M203.378587,468.983085 C203.378587,479.508319 196.508246,486.96617 186.972797,486.96617 C182.064556,486.96617 178.27959,484.945026 175.68538,481.808856 L175.68538,500 L165.378587,500 L165.378587,451.906118 L175.68538,451.906118 L175.68538,456.158163 C178.27959,452.952357 182.064556,451 186.972797,451 C196.508246,451 203.378587,458.388215 203.378587,468.983085" id="Fill-27" fill="#FCDE0A"></path>
        <path d="M236.072648,464.955066 C233.96875,461.970839 231.164407,460.681613 227.869753,460.681613 C222.330257,460.681613 218.965558,464.208803 218.965558,469.499587 C218.965558,474.72343 222.330257,478.31756 227.869753,478.31756 C231.164407,478.31756 233.96875,476.961394 236.072648,474.044934 L236.072648,464.955066 Z M246.378587,452.880971 L246.378587,486.119029 L236.072648,486.119029 L236.072648,481.98111 C233.478439,485.033104 229.691764,487 224.784378,487 C215.249783,487 208.378587,479.74232 208.378587,469.499587 C208.378587,459.189913 215.249783,452 224.784378,452 C229.691764,452 233.478439,453.899129 236.072648,457.01889 L236.072648,452.880971 L246.378587,452.880971 Z" id="Fill-29" fill="#FCDE0A"></path>
        <path d="M307.378587,465.045755 L307.378587,486 L297.20108,486 L297.20108,465.789415 C297.20108,463.152428 295.610265,460.854741 292.078587,460.854741 C289.448597,460.854741 287.301924,461.936878 285.57109,464.031149 L285.57109,486 L275.394426,486 L275.394426,465.721061 C275.394426,463.288313 273.732758,460.854741 270.201924,460.854741 C267.501924,460.854741 265.286085,462.274531 263.555251,464.774809 L263.555251,486 L253.378587,486 L253.378587,452.878721 L263.555251,452.878721 L263.555251,456.663728 C266.116919,453.757442 269.301924,452 273.524417,452 C277.747753,452 281.070246,453.689912 283.078587,456.393605 C286.263592,453.351435 289.932758,452 294.017762,452 C301.909421,452 307.378587,457.204796 307.378587,465.045755" id="Fill-31" fill="#FCDE0A"></path>
        <path d="M343.791616,468.907349 C343.791616,463.437518 340.426063,459.790964 334.887421,459.790964 C331.592767,459.790964 328.78757,461.123819 326.68538,464.209036 L326.68538,473.605663 C328.78757,476.621674 331.592767,478.023735 334.887421,478.023735 C340.426063,478.023735 343.791616,474.307975 343.791616,468.907349 M354.378587,468.907349 C354.378587,479.496711 347.508246,487 337.972797,487 C333.064556,487 329.27959,484.966542 326.68538,481.811264 L326.68538,486.088361 L316.378587,486.088361 L316.378587,437 L326.68538,437 L326.68538,456.004289 C329.27959,452.778951 333.064556,450.814699 337.972797,450.814699 C347.508246,450.814699 354.378587,458.247928 354.378587,468.907349" id="Fill-33" fill="#FCDE0A"></path>
        <path d="M386.072648,464.955066 C383.96875,461.970839 381.164407,460.681613 377.869753,460.681613 C372.330257,460.681613 368.965558,464.208803 368.965558,469.499587 C368.965558,474.72343 372.330257,478.31756 377.869753,478.31756 C381.164407,478.31756 383.96875,476.961394 386.072648,474.044934 L386.072648,464.955066 Z M396.378587,452.880971 L396.378587,486.119029 L386.072648,486.119029 L386.072648,481.98111 C383.478439,485.033104 379.691764,487 374.784378,487 C365.248928,487 358.378587,479.74232 358.378587,469.499587 C358.378587,459.189913 365.248928,452 374.784378,452 C379.691764,452 383.478439,453.899129 386.072648,457.01889 L386.072648,452.880971 L396.378587,452.880971 Z" id="Fill-35" fill="#FCDE0A"></path>
    </g>
</svg>